<svg width="12" height="12" viewBox="0 0 12 12" fill="none" xmlns="http://www.w3.org/2000/svg">
<path d="M9.99023 2.99512C9.86033 2.99899 9.73704 3.05328 9.64648 3.14649L4.5 8.29297L2.85351 6.64649C2.80744 6.5985 2.75225 6.56019 2.69119 6.5338C2.63013 6.50741 2.56441 6.49346 2.49789 6.49279C2.43137 6.49211 2.36538 6.50471 2.30379 6.52986C2.24221 6.555 2.18625 6.59218 2.13921 6.63922C2.09217 6.68626 2.05499 6.74221 2.02985 6.8038C2.0047 6.86539 1.9921 6.93138 1.99278 6.9979C1.99345 7.06442 2.0074 7.13013 2.03379 7.1912C2.06018 7.25226 2.09849 7.30745 2.14648 7.35352L4.14648 9.35352C4.24025 9.44725 4.36741 9.49991 4.5 9.49991C4.63258 9.49991 4.75974 9.44725 4.85351 9.35352L10.3535 3.85352C10.4258 3.78329 10.4751 3.69287 10.4951 3.59411C10.5151 3.49535 10.5047 3.39286 10.4655 3.30006C10.4262 3.20727 10.3598 3.12851 10.275 3.07409C10.1902 3.01968 10.0909 2.99215 9.99023 2.99512Z" fill="#7F56D9"/>
</svg>
