<svg width="24" height="24" viewBox="0 0 24 24" fill="none" xmlns="http://www.w3.org/2000/svg">
<g clip-path="url(#clip0_54_13)">
<path d="M22.0615 3.409C20.8048 2.15227 19.141 1.4654 17.3653 1.4654C15.5896 1.4654 13.9207 2.15736 12.664 3.41409L12.0077 4.07044L11.3411 3.40391C10.0844 2.14719 8.41047 1.45013 6.63477 1.45013C4.86416 1.45013 3.1953 2.1421 1.94366 3.39374C0.686934 4.65047 -0.00502959 6.31932 5.83779e-05 8.09502C5.83779e-05 9.87072 0.69711 11.5345 1.95384 12.7912L11.509 22.3464C11.6413 22.4787 11.8194 22.5499 11.9924 22.5499C12.1654 22.5499 12.3435 22.4838 12.4758 22.3515L22.0513 12.8116C23.308 11.5548 24 9.88599 24 8.11029C24.0051 6.33458 23.3182 4.66573 22.0615 3.409ZM21.0846 11.8398L11.9924 20.8964L2.92055 11.8245C1.92331 10.8273 1.37381 9.50439 1.37381 8.09502C1.37381 6.68566 1.91822 5.36278 2.91546 4.37063C3.90762 3.37847 5.23049 2.82897 6.63477 2.82897C8.04414 2.82897 9.3721 3.37847 10.3693 4.37572L11.5192 5.5256C11.7889 5.79526 12.2214 5.79526 12.491 5.5256L13.6307 4.38589C14.628 3.38865 15.9559 2.83915 17.3602 2.83915C18.7645 2.83915 20.0874 3.38865 21.0846 4.3808C22.0818 5.37805 22.6263 6.70092 22.6263 8.11029C22.6313 9.51965 22.0818 10.8425 21.0846 11.8398Z" fill="#7F56D9"/>
</g>
<defs>
<clipPath id="clip0_54_13">
<rect width="24" height="24" fill="white"/>
</clipPath>
</defs>
</svg>
