<svg width="24" height="24" viewBox="0 0 24 24" fill="none" xmlns="http://www.w3.org/2000/svg">
<g clip-path="url(#clip0_232_4)">
<path d="M23.2773 9.85797L13.2069 0.890762C13.1732 0.861205 13.1326 0.835837 13.087 0.816404C12.4425 0.313713 11.5523 0.337103 10.9305 0.890762L0.860036 9.85693C0.138225 10.4991 0.0470931 11.6388 0.658074 12.3982C1.04423 12.8785 1.68476 12.8724 2.17596 12.7706V22.4094C2.17596 23.137 2.74426 23.7294 3.44332 23.7294H9.50966C9.78295 23.7294 10.0048 23.5014 10.0048 23.2206V14.8142H14.1336V23.2206C14.1336 23.5014 14.3554 23.7294 14.6286 23.7294H20.695C21.3941 23.7294 21.9624 23.137 21.9624 22.4094V12.7706C22.4554 12.8703 23.094 12.8775 23.4802 12.3982C24.0902 11.6389 23.9991 10.4981 23.2773 9.85797ZM22.7169 11.7489C22.615 11.872 22.0871 11.8047 21.6654 11.6155C21.512 11.5463 21.3337 11.5627 21.1961 11.6564C21.0565 11.75 20.9714 11.9109 20.9714 12.0817V22.4085C20.9714 22.5755 20.8465 22.7108 20.6941 22.7108H15.1227V14.3045C15.1227 14.0236 14.9009 13.7956 14.6277 13.7956H9.50875C9.23547 13.7956 9.0137 14.0236 9.0137 14.3045V22.7108H3.4423C3.28981 22.7108 3.16506 22.5755 3.16506 22.4085V12.0816C3.16506 11.9096 3.08083 11.7489 2.94034 11.6552C2.80075 11.5626 2.62347 11.5483 2.46996 11.6154C2.0957 11.7854 1.52649 11.8811 1.41951 11.7478C1.14917 11.4119 1.18789 10.9092 1.50668 10.6253L11.5772 1.65818C11.8525 1.41393 12.2514 1.41393 12.5268 1.65818C12.5623 1.69076 12.6031 1.71717 12.6456 1.73661L22.6289 10.6274C22.9486 10.9103 22.9871 11.4129 22.7169 11.7489Z" fill="#7F56D9"/>
</g>
<defs>
<clipPath id="clip0_232_4">
<rect width="24" height="24" fill="white"/>
</clipPath>
</defs>
</svg>
