<svg width="24" height="24" viewBox="0 0 24 24" fill="none" xmlns="http://www.w3.org/2000/svg">
<path d="M22.735 16.3828C22.4543 11.3788 18.7362 7.27798 13.9095 6.40929C13.9789 6.20557 14.0171 5.98747 14.0171 5.76065C14.0171 4.6484 13.1122 3.7436 12 3.7436C10.8878 3.7436 9.98287 4.6484 9.98287 5.76065C9.98287 5.98755 10.0211 6.20549 10.0904 6.40921C5.26392 7.27782 1.54618 11.3788 1.26545 16.3826C0.522343 16.6901 0 17.4065 0 18.2394C0 19.3516 0.931717 20.2564 2.07693 20.2564H21.9231C23.0683 20.2564 24 19.3516 24 18.2394C24 17.4068 23.4778 16.6904 22.735 16.3828ZM11.5213 5.76065C11.5213 5.49673 11.736 5.28202 12 5.28202C12.264 5.28202 12.4787 5.49673 12.4787 5.76065C12.4787 6.02465 12.264 6.23935 12 6.23935C11.736 6.23935 11.5213 6.02465 11.5213 5.76065ZM12 7.77778C16.8215 7.77778 20.7898 11.5001 21.1819 16.2222H2.8181C3.21018 11.5001 7.1785 7.77778 12 7.77778ZM21.9231 18.718H2.07693C1.78513 18.718 1.53842 18.4987 1.53842 18.2394C1.53842 17.9799 1.78513 17.7606 2.07693 17.7606H21.9231C22.2149 17.7606 22.4616 17.9799 22.4616 18.2394C22.4616 18.4987 22.2149 18.718 21.9231 18.718Z" fill="#7F56D9"/>
</svg>
